<svg width="83" height="84" viewBox="0 0 83 84" fill="none" xmlns="http://www.w3.org/2000/svg">
<path d="M82.5369 41.9143C82.5369 53.7775 72.92 63.3945 61.0568 63.3945C49.1936 63.3945 39.5767 53.7775 39.5767 41.9143C39.5767 30.0512 49.1936 20.4342 61.0568 20.4342C72.92 20.4342 82.5369 30.0512 82.5369 41.9143ZM43.8727 41.9143C43.8727 51.4049 51.5663 59.0985 61.0568 59.0985C70.5473 59.0985 78.2409 51.4049 78.2409 41.9143C78.2409 32.4238 70.5473 24.7302 61.0568 24.7302C51.5663 24.7302 43.8727 32.4238 43.8727 41.9143Z" fill="white"/>
<path d="M67.6696 62.3573C67.6696 74.2204 58.0526 83.8374 46.1895 83.8374C34.3263 83.8374 24.7094 74.2204 24.7094 62.3573C24.7094 50.4941 34.3263 40.8771 46.1895 40.8771C58.0526 40.8771 67.6696 50.4941 67.6696 62.3573ZM29.0054 62.3573C29.0054 71.8478 36.699 79.5414 46.1895 79.5414C55.68 79.5414 63.3736 71.8478 63.3736 62.3573C63.3736 52.8668 55.68 45.1732 46.1895 45.1732C36.699 45.1732 29.0054 52.8668 29.0054 62.3573Z" fill="white"/>
<path d="M43.6706 54.5312C43.6706 66.3943 34.0536 76.0113 22.1905 76.0113C10.3273 76.0113 0.710327 66.3943 0.710327 54.5312C0.710327 42.668 10.3273 33.051 22.1905 33.051C34.0536 33.051 43.6706 42.668 43.6706 54.5312ZM5.00636 54.5312C5.00636 64.0217 12.6999 71.7153 22.1905 71.7153C31.681 71.7153 39.3746 64.0217 39.3746 54.5312C39.3746 45.0406 31.681 37.3471 22.1905 37.3471C12.6999 37.3471 5.00636 45.0406 5.00636 54.5312Z" fill="white"/>
<path d="M43.6794 29.2853C43.6794 41.1484 34.0624 50.7654 22.1993 50.7654C10.3361 50.7654 0.719116 41.1484 0.719116 29.2853C0.719116 17.4221 10.3361 7.80511 22.1993 7.80511C34.0624 7.80511 43.6794 17.4221 43.6794 29.2853ZM5.01514 29.2853C5.01514 38.7758 12.7087 46.4694 22.1993 46.4694C31.6898 46.4694 39.3834 38.7758 39.3834 29.2853C39.3834 19.7947 31.6898 12.1011 22.1993 12.1011C12.7087 12.1011 5.01514 19.7947 5.01514 29.2853Z" fill="white"/>
<path d="M67.6967 21.4801C67.6967 33.3433 58.0797 42.9603 46.2166 42.9603C34.3534 42.9603 24.7365 33.3433 24.7365 21.4801C24.7365 9.61699 34.3534 0 46.2166 0C58.0797 0 67.6967 9.61699 67.6967 21.4801ZM29.0325 21.4801C29.0325 30.9707 36.7261 38.6643 46.2166 38.6643C55.7071 38.6643 63.4007 30.9707 63.4007 21.4801C63.4007 11.9896 55.7071 4.29603 46.2166 4.29603C36.7261 4.29603 29.0325 11.9896 29.0325 21.4801Z" fill="white"/>
<path d="M82.5369 41.9143C82.5369 53.7775 72.92 63.3945 61.0568 63.3945C49.1936 63.3945 39.5767 53.7775 39.5767 41.9143C39.5767 30.0512 49.1936 20.4342 61.0568 20.4342C72.92 20.4342 82.5369 30.0512 82.5369 41.9143ZM43.8727 41.9143C43.8727 51.4049 51.5663 59.0985 61.0568 59.0985C70.5473 59.0985 78.2409 51.4049 78.2409 41.9143C78.2409 32.4238 70.5473 24.7302 61.0568 24.7302C51.5663 24.7302 43.8727 32.4238 43.8727 41.9143Z" fill="white"/>
<path d="M66.139 13.4493C67.3261 16.3942 67.8456 19.5655 67.66 22.7352C67.4745 25.9049 66.5886 28.994 65.0661 31.7803L61.2962 29.7202C62.5142 27.4912 63.2229 25.0199 63.3713 22.4842C63.5198 19.9485 63.1042 17.4114 62.1545 15.0555L66.139 13.4493Z" fill="white"/>
<path d="M25.1921 66.8858C26.0917 71.0569 28.2133 74.8657 31.2862 77.8263L34.2669 74.7325C31.8085 72.364 30.1113 69.317 29.3916 65.9801L25.1921 66.8858Z" fill="white"/>
<path d="M55.1756 42.8471C50.6265 40.7519 45.4882 40.3121 40.6492 41.6039C35.8103 42.8957 31.5748 45.8378 28.6752 49.9215L32.1781 52.4087C34.4978 49.1417 37.8861 46.788 41.7573 45.7546C45.6285 44.7212 49.7391 45.0729 53.3783 46.7491L55.1756 42.8471Z" fill="white"/>
<path d="M43.6706 54.5312C43.6706 51.7104 43.115 48.9172 42.0355 46.3111C40.9561 43.705 39.3738 41.337 37.3792 39.3424C35.3846 37.3478 33.0167 35.7656 30.4106 34.6861C27.8045 33.6066 25.0113 33.051 22.1905 33.051V37.3471C24.4471 37.3471 26.6817 37.7915 28.7665 38.6551C30.8514 39.5187 32.7458 40.7845 34.3415 42.3802C35.9372 43.9759 37.2029 45.8702 38.0665 47.9551C38.9301 50.04 39.3746 52.2745 39.3746 54.5312H43.6706Z" fill="white"/>
<path d="M13.0689 35.084C10.515 36.2818 8.22214 37.971 6.3211 40.055C4.42006 42.139 2.94811 44.577 1.98929 47.2299C1.03047 49.8827 0.60356 52.6985 0.732929 55.5163C0.862299 58.3341 1.54542 61.0989 2.74328 63.6528L6.63272 61.8284C5.67443 59.7854 5.12793 57.5736 5.02444 55.3193C4.92094 53.065 5.26247 50.8124 6.02953 48.6901C6.79658 46.5678 7.97414 44.6174 9.49498 42.9502C11.0158 41.283 12.8501 39.9317 14.8932 38.9734L13.0689 35.084Z" fill="white"/>
<path d="M13.0689 35.084C10.515 36.2818 8.22214 37.971 6.3211 40.055C4.42006 42.139 2.94811 44.577 1.98929 47.2299C1.03047 49.8827 0.60356 52.6985 0.732929 55.5163C0.862299 58.3341 1.54542 61.0989 2.74328 63.6528L6.63272 61.8284C5.67443 59.7854 5.12793 57.5736 5.02444 55.3193C4.92094 53.065 5.26247 50.8124 6.02953 48.6901C6.79658 46.5678 7.97414 44.6174 9.49498 42.9502C11.0158 41.283 12.8501 39.9317 14.8932 38.9734L13.0689 35.084Z" fill="white"/>
<path d="M23.9248 7.87453C29.1784 8.29794 34.093 10.6382 37.7333 14.4498L34.6265 17.4169C31.7143 14.3676 27.7826 12.4954 23.5797 12.1567L23.9248 7.87453Z" fill="white"/>
<path d="M43.6085 27.5419C44.033 32.7545 42.5411 37.9429 39.4128 42.134C36.2845 46.325 31.7346 49.2308 26.6165 50.3063L25.7331 46.1021C29.8275 45.2417 33.4674 42.9171 35.9701 39.5642C38.4728 36.2114 39.6662 32.0607 39.3267 27.8906L43.6085 27.5419Z" fill="white"/>
<path d="M53.4509 41.7054C48.4812 43.483 43.0311 43.3686 38.1404 41.3842C33.2497 39.3998 29.2608 35.6841 26.9348 30.9463L30.7912 29.0531C32.6519 32.8433 35.8431 35.8158 39.7556 37.4034C43.6682 38.9909 48.0283 39.0824 52.004 37.6604L53.4509 41.7054Z" fill="white"/>
<path d="M45.868 26.7256C42.1936 30.4 39.9757 35.2819 39.6255 40.4666C39.2753 45.6512 40.8164 50.7871 43.9633 54.9223L47.382 52.3207C44.8645 49.0125 43.6316 44.9038 43.9118 40.7561C44.192 36.6084 45.9662 32.7029 48.9058 29.7633L45.868 26.7256Z" fill="white"/>
<path d="M56.0218 43.2596C51.1434 40.748 45.4888 40.1985 40.2181 41.7238C34.9474 43.2492 30.4602 46.7338 27.6773 51.4626L31.3797 53.6415C33.6061 49.8585 37.1958 47.0708 41.4123 45.8505C45.6289 44.6302 50.1526 45.0698 54.0553 47.0791L56.0218 43.2596Z" fill="white"/>
</svg>
